<svg width="27" height="40" viewBox="0 0 27 40" fill="none" xmlns="http://www.w3.org/2000/svg">
<g clip-path="url(#clip0)">
<path fill-rule="evenodd" clip-rule="evenodd" d="M9.95109 2.10375C12.6006 1.00628 15.5161 0.719135 18.3288 1.27862C21.1415 1.83811 23.7252 3.2191 25.753 5.24696L26.4602 4.53985C24.2924 2.37214 21.5306 0.895905 18.5239 0.297835C15.5172 -0.300236 12.4007 0.00671629 9.56841 1.17987C6.73615 2.35303 4.31538 4.33971 2.61222 6.88867C0.909059 9.43763 0 12.4344 0 15.5C0 18.5656 0.90906 21.5624 2.61222 24.1113C4.10216 26.3412 6.14127 28.1407 8.52462 29.3418L6.01646 38.8728L6.98354 39.1272L9.44625 29.7689C9.48689 29.7862 9.5276 29.8032 9.56841 29.8201C11.7149 30.7093 14.0247 31.1008 16.3263 30.978L18.5171 39.1298L19.4829 38.8702L17.3383 30.8906C17.7348 30.8433 18.1303 30.7805 18.5239 30.7022C18.6112 30.6848 18.6982 30.6667 18.7851 30.6479L21.0165 39.1272L21.9835 38.8728L19.7551 30.4045C22.2823 29.683 24.5919 28.3284 26.4602 26.4602L25.753 25.7531C24.0103 27.4959 21.8569 28.7609 19.5005 29.4372L14.4835 10.3728L14 8.53531L13.5165 10.3728L12.2007 15.3728L8.7852 28.3515C6.63698 27.2291 4.79786 25.5824 3.44369 23.5558C1.85041 21.1713 1 18.3678 1 15.5C1 12.6322 1.85041 9.82875 3.44369 7.44424C5.03697 5.05973 7.30156 3.20123 9.95109 2.10375ZM9.70359 28.791C9.78571 28.8269 9.86821 28.8619 9.95109 28.8963C11.8931 29.7007 13.978 30.0697 16.0605 29.9892L12.6893 17.4454L9.70359 28.791ZM17.0759 29.9141C17.495 29.8683 17.913 29.8041 18.3288 29.7214C18.3961 29.708 18.4633 29.6942 18.5303 29.6798L14 12.4647L13.2016 15.4986L17.0759 29.9141Z" fill="black"/>
</g>
<defs>
<clipPath id="clip0">
<rect width="26.4602" height="39.1298" fill="white"/>
</clipPath>
</defs>
</svg>
